<?xml version="1.0" standalone="no"?>
<!DOCTYPE svg PUBLIC "-//W3C//DTD SVG 20010904//EN"
 "http://www.w3.org/TR/2001/REC-SVG-20010904/DTD/svg10.dtd">
<svg version="1.0" xmlns="http://www.w3.org/2000/svg"
 width="314.000000pt" height="319.000000pt" viewBox="0 0 314.000000 319.000000"
 preserveAspectRatio="xMidYMid meet">

<g transform="translate(0.000000,319.000000) scale(0.100000,-0.100000)"
fill="#000000" stroke="none">
<path d="M2767 1893 c-4 -3 -7 -15 -7 -25 0 -10 -11 -57 -25 -104 -14 -48 -33
-131 -42 -184 l-17 -97 -70 -16 c-38 -9 -70 -16 -70 -14 -1 1 -10 20 -21 42
-38 75 -160 111 -220 63 -26 -20 -27 -24 -20 -77 8 -68 8 -87 -1 -174 -7 -78
4 -115 48 -152 45 -38 72 -33 132 28 45 45 55 62 70 122 10 39 21 77 25 85 10
19 80 60 105 60 15 0 17 -5 12 -37 -3 -21 -9 -104 -12 -184 l-7 -145 29 -23
c15 -12 37 -21 48 -19 18 3 21 10 21 58 0 49 2 55 20 53 32 -3 90 15 119 38
48 37 81 120 95 234 12 95 -11 135 -76 135 -33 0 -89 -32 -116 -66 -28 -36
-51 -32 -43 9 4 17 11 55 17 82 12 67 23 114 49 210 21 75 21 80 4 92 -20 14
-37 17 -47 6z m-339 -369 c12 -8 31 -33 42 -54 22 -42 16 -53 -33 -65 -26 -7
-28 -6 -21 19 5 23 2 28 -31 42 -28 11 -40 12 -51 3 -11 -9 -14 -7 -14 10 0
58 56 81 108 45z m494 -49 c12 -41 0 -141 -22 -192 -18 -42 -48 -64 -103 -77
-43 -10 -57 8 -57 70 0 62 12 93 59 154 68 87 107 102 123 45z m-462 -196
c-29 -50 -55 -79 -70 -79 -16 0 -26 49 -21 95 l6 49 55 16 c55 16 55 16 58 -6
2 -12 -11 -46 -28 -75z"/>
<path d="M2095 1751 c-9 -8 -55 -33 -218 -118 -16 -8 -37 -13 -48 -10 -15 4
-19 1 -17 -11 7 -35 95 -23 195 26 29 14 56 23 60 19 8 -9 9 -264 0 -319 -3
-20 -10 -44 -15 -55 -5 -10 -12 -33 -15 -51 -6 -30 -40 -88 -62 -105 -15 -11
-56 2 -88 29 -35 29 -67 32 -67 5 0 -21 48 -61 73 -61 8 0 20 -7 28 -16 28
-34 152 23 165 76 3 14 13 45 20 68 8 24 14 60 14 80 -1 62 15 159 28 175 7 8
15 49 17 89 2 41 9 87 15 102 12 33 3 49 -41 72 -33 17 -32 17 -44 5z"/>
<path d="M116 1706 c-3 -22 -6 -90 -6 -151 -1 -292 1 -368 11 -386 9 -18 20
-19 152 -17 130 3 142 5 145 22 6 30 -17 36 -117 29 -91 -6 -93 -6 -87 15 4
11 3 23 -2 26 -5 3 -10 39 -10 80 -2 86 6 96 76 96 47 0 72 21 52 45 -8 10
-31 15 -71 15 l-59 0 0 69 c0 38 -3 83 -6 101 l-7 32 124 -4 c119 -3 124 -2
127 18 2 11 -3 25 -10 31 -7 6 -79 13 -160 16 l-146 5 -6 -42z m41 -438 c-3
-7 -5 -2 -5 12 0 14 2 19 5 13 2 -7 2 -19 0 -25z"/>
<path d="M1028 1577 c-92 -88 -113 -131 -90 -181 8 -19 6 -31 -14 -62 -13 -22
-24 -48 -24 -60 0 -11 -4 -24 -9 -30 -5 -5 -18 -44 -29 -87 -11 -43 -23 -81
-26 -85 -29 -28 -27 152 4 330 23 133 23 138 5 158 -24 27 -35 26 -92 -13 -49
-33 -50 -33 -73 -15 -28 23 -83 23 -105 1 -29 -29 -65 -91 -85 -151 -39 -111
-39 -111 -25 -146 15 -36 31 -46 75 -46 25 0 33 9 76 91 27 50 54 99 59 109
18 30 84 100 95 100 10 0 9 -10 -11 -145 -21 -144 -6 -303 34 -342 42 -42 97
-10 97 57 0 17 22 96 60 221 15 51 29 64 77 78 26 8 67 23 90 33 23 11 52 18
65 16 20 -3 23 -8 20 -43 -3 -30 -11 -46 -35 -67 -18 -15 -36 -27 -41 -28 -4
0 -23 -12 -42 -27 -18 -16 -49 -41 -68 -57 -23 -18 -43 -49 -56 -83 -25 -66
-25 -74 -1 -100 19 -20 22 -20 64 -6 56 18 137 93 137 127 0 7 9 21 20 31 25
22 25 27 1 42 -17 11 -22 6 -52 -50 -39 -74 -71 -107 -105 -107 -51 0 -18 63
75 140 59 49 65 52 77 36 17 -24 48 -16 52 12 2 12 7 22 12 22 4 0 10 9 13 20
3 11 13 23 24 26 10 4 25 13 33 19 8 7 28 15 44 19 23 6 34 2 56 -19 37 -36
69 -30 95 16 27 48 103 134 111 126 4 -4 6 -19 6 -34 -5 -117 -24 -177 -71
-228 -93 -101 -172 -300 -145 -369 3 -9 21 -25 40 -37 64 -39 111 -2 150 115
27 82 32 106 38 207 2 31 12 71 21 88 23 46 170 149 248 175 26 8 21 35 -9 42
-28 7 -102 -23 -157 -63 -42 -31 -50 -29 -43 10 36 172 31 207 -27 207 -23 0
-40 -11 -71 -44 -23 -24 -61 -61 -85 -82 l-44 -39 7 75 c7 68 5 78 -13 94 -46
42 -79 -11 -80 -131 -1 -60 -2 -63 -26 -64 -14 -1 -30 -2 -36 -3 -7 -1 -17 8
-23 18 -34 60 -58 76 -110 76 -28 0 -75 -7 -103 -14 -29 -8 -53 -12 -53 -9 0
10 71 113 78 113 4 1 25 17 47 36 38 34 39 36 21 50 -37 26 -60 16 -148 -69z
m-348 -95 c0 -5 -19 -31 -42 -59 -24 -28 -55 -66 -70 -84 l-27 -34 15 45 c25
75 74 140 106 140 10 0 18 -4 18 -8z m905 -404 c-4 -35 -12 -81 -18 -103 -6
-22 -10 -45 -9 -51 1 -6 -11 -26 -28 -44 -90 -96 -82 65 11 201 22 32 42 59
45 59 3 0 3 -28 -1 -62z"/>
<path d="M1230 721 l0 -71 40 0 c22 0 40 5 40 10 0 6 -13 10 -30 10 -23 0 -30
4 -30 20 0 15 7 20 25 20 14 0 25 5 25 10 0 6 -11 10 -25 10 -35 0 -33 28 3
32 40 4 33 23 -10 26 l-38 3 0 -70z"/>
<path d="M1610 732 c0 -48 -3 -62 -15 -62 -8 0 -15 -5 -15 -11 0 -6 10 -9 23
-7 20 3 22 10 25 62 2 32 -2 64 -7 69 -8 8 -11 -8 -11 -51z"/>
<path d="M1766 779 c-4 -9 -6 -41 -4 -70 3 -51 5 -54 31 -57 34 -4 57 13 57
42 0 28 -18 46 -46 46 -17 0 -24 7 -26 28 -3 21 -6 23 -12 11z m59 -84 c0 -13
-8 -21 -22 -23 -17 -3 -23 2 -23 16 0 10 3 22 7 26 13 13 38 1 38 -19z"/>
<path d="M1336 731 c-4 -5 4 -11 16 -13 22 -4 22 -5 -5 -16 -39 -17 -33 -46
11 -50 l33 -3 -3 43 c-2 35 -7 44 -25 46 -11 2 -24 -1 -27 -7z m34 -51 c0 -5
-7 -10 -16 -10 -8 0 -12 5 -9 10 3 6 10 10 16 10 5 0 9 -4 9 -10z"/>
<path d="M1422 728 c-18 -18 -15 -26 16 -42 l27 -15 -28 -1 c-16 0 -26 -4 -22
-10 8 -12 52 -13 59 -1 9 14 -4 41 -19 41 -8 0 -17 5 -21 12 -5 8 0 9 15 5 14
-3 21 -1 18 6 -5 17 -30 20 -45 5z"/>
<path d="M1490 730 c0 -5 8 -26 17 -46 17 -35 17 -36 -1 -50 -22 -15 -15 -30
9 -20 19 7 57 93 52 115 -3 11 -9 5 -19 -17 l-15 -34 -13 31 c-12 29 -30 42
-30 21z"/>
<path d="M1666 724 c-30 -30 -10 -74 34 -74 40 0 58 32 35 66 -18 28 -46 31
-69 8z m57 -16 c7 -21 -4 -38 -23 -38 -23 0 -32 13 -24 34 7 19 40 21 47 4z"/>
</g>
</svg>
